<?xml version="1.0" encoding="UTF-8"?>
<svg id="Layer_2" data-name="Layer 2" xmlns="http://www.w3.org/2000/svg" viewBox="0 0 833.95 835.98">
  <defs>
    <style>
      .cls-1 {
        fill: #5885c4;
      }

      .cls-2 {
        fill: #abc2e1;
      }

      .cls-3 {
        fill: #fff;
      }

      .cls-4 {
        fill: #f60;
      }

      .cls-5 {
        fill: #f8a712;
      }
    </style>
  </defs>
  <g id="dmg_icon" data-name="dmg icon">
    <g>
      <g>
        <path class="cls-2" d="M403.83,466.81c-5.1-2.42-9.13-2.79-12.32-1.12-8.92,4.64-13.42,24.57-17.49,47.59l42.95,24.8,91.25-52.68c-33.93,1.76-72.19-3.31-104.4-18.58Z"/>
        <path class="cls-2" d="M524.33,68.81c-1.38,1.62-3.67,2.1-5.58,1.17-1.91-.93-2.95-3.03-2.52-5.12,3.81-18.69,10.99-34.96,21.78-49.31-29.45,12.81-46.55,30.36-63.18,53.46-1.16,1.61-3.22,2.31-5.12,1.74-1.9-.57-3.23-2.29-3.31-4.28-.41-10.85,4.36-25.36,13.06-40.39-35.15,15.34-56.3,40.08-67.16,78.32,6.53-1.33,13.16-1.97,19.77-1.97,32.53,0,64.68,15.59,83.58,41.74.6-1.67,1.2-3.33,1.79-4.97,5.12-14.22,10.41-28.92,17.06-42.61,13.72-28.14,32.06-54.38,52.71-75.64-23.23,9.58-43.57,25.12-62.89,47.85Z"/>
      </g>
      <g>
        <path class="cls-3" d="M583.88,234.1c-8.99-12.23-21.59-18.13-35.63-16.56-6.83.76-13.48,3.22-19.55,7.04-5.9,4.71-11.47,10.28-16.41,16.04.05.3.1.61.15.91.77,3,1.18,6.11,1.21,9.3,1.51,14.18,1.18,26.52-1.02,37.18,6.57-1.48,13.45-2.26,20.5-2.28h.2c8.97,0,18.57,1.66,28.01,4.7,18.67-8.15,25.85-26.21,22.53-56.32ZM554.81,269.67c-3.33,3.57-8.06,4.63-11.45,4.9-.66.05-1.3.08-1.92.08-2.77,0-5.23-.51-7.35-1.52-3.65-1.75-6.28-5.11-7.39-9.47-1.28-4.99-.29-10.56,2.57-14.53,4.75-6.59,14.04-10.06,23.68-8.84.96.12,1.7.9,1.78,1.86s-.53,1.85-1.45,2.12c-4.84,1.44-8.55,6.06-9.05,11.07,1.3-1.31,3.14-2.04,5.21-2.04h.04c2.8.01,5.44,1.36,6.89,3.52,2.49,3.7,1.82,9.23-1.56,12.85Z"/>
        <path class="cls-3" d="M504.13,249.45c-.03-.23-.05-.46-.08-.68-.07-.58-.14-1.16-.22-1.76-.03-.22-.06-.45-.09-.67-.1-.75-.21-1.51-.33-2.28-4-15.1-20.66-28.79-48.98-29.33-32.74-.65-66.57,19.08-68.55,64.53,2.39,32.21,25.85,49.58,66,48.97,2.83-.04,5.63-.3,8.37-.73,2.51-5.23,5.73-10.16,9.64-14.69,8.49-9.81,19.67-17.23,32.44-21.81,3.06-10.73,3.74-23.76,2.06-39.36-.08-.71-.16-1.45-.25-2.19ZM463.03,288.17c-5.15,5.51-12.47,7.16-17.7,7.57-1.01.08-2,.12-2.97.12-4.28,0-8.09-.79-11.36-2.35-5.64-2.7-9.69-7.9-11.42-14.64-1.97-7.72-.45-16.33,3.97-22.47,7.35-10.2,21.74-15.57,36.66-13.68,1.44.18,2.55,1.35,2.67,2.79.12,1.44-.79,2.77-2.18,3.18-7.64,2.27-13.49,9.65-14.15,17.58,2.03-2.16,4.92-3.37,8.29-3.35,4.31.02,8.38,2.1,10.61,5.42,3.84,5.71,2.8,14.23-2.42,19.82Z"/>
      </g>
      <g>
        <path class="cls-1" d="M396.65,205.88c8.51-10.66,18.83-19.22,29.79-24.48,8.94-4.28,17.86-6.23,26.49-5.94,14.37.06,28.05,7,39.88,20.42,9.39-.5,19.18-.86,29.23-1.02,13.68-9.39,29.35-12.63,42.11-8.21,4.66,1.61,9.85,4.53,14.6,9.72,6.93.52,13.84,1.19,20.68,2.01-14.66-28.63-37.86-57.27-66.96-73.1-2.16,5.69-4.23,11.42-6.26,17.07-1.64,4.54-3.33,9.24-5.03,13.8-.63,1.69-2.18,2.87-3.98,3.01-.13.01-.25.02-.38.02-1.66,0-3.2-.89-4.04-2.34l-.25-.43c-20.38-35.04-65.61-52.73-105.27-41.2-49.6,18.08-87.11,60.55-102.25,108.65,32.84-7.72,62.42-13.55,91.64-18.01Z"/>
        <path class="cls-1" d="M573.76,295.28c5.72,2.64,11.24,5.77,16.38,9.35,6.45,4.49,12.03,9.46,16.67,14.78,2.02-7.13,3.85-14.27,5.35-21.41-11.67-1.44-24.58-2.35-38.4-2.72Z"/>
        <path class="cls-1" d="M548.99,437.51s-.09,0-.14,0c-1.86,0-3.55-1.12-4.29-2.84-.75-1.77-.33-3.81,1.04-5.15,6.05-5.89,9.41-13.79,9.48-22.26.06-7.48-2.58-14.46-7.24-19.13-.39-.39-.78-.76-1.18-1.11-12.96,20.02-35.87,33.94-57.7,38.52-6.47,1.36-12.79,2.03-18.84,2.03-13.17,0-25.09-3.18-34.63-9.39-15.25-9.92-25.17-28.44-25.89-48.32-.53-14.61,2.25-26.92,8.23-36.8-12.76-4.13-21.62-10.73-27.75-18.09-31.61,7.75-55.28,16.87-66.11,25.91-1.11.93-2.32,2.06-3.34,3.29,10.56,18.12,25.04,34.16,44.92,43.59,2.32,1.1,3.31,3.88,2.21,6.2-1.04,2.19-3.56,3.17-5.8,2.35-.13-.05-.27-.08-.4-.14-20.93-9.93-47.74-32.22-64.62-82.21-.6,1.19-1.2,2.27-1.74,3.16-3.98,6.54-9.72,12.23-15.37,15.23-9.08,4.82-19.08,6.3-28.32,6.3-6.83,0-13.26-.81-18.6-1.67-1.33-.21-2.51-1-3.22-2.15s-.89-2.55-.48-3.84c5.15-16.49,18.21-30.48,34.08-37.65-7.08-3.59-13.99-7.48-20.55-11.26-14.34-8.28-31.75-20.2-39.15-39.08-.52-1.33-.4-2.83.32-4.06.73-1.23,1.98-2.06,3.39-2.25,17.78-2.38,52.6,4.99,77.25,21.4-4.26-34.22-2.6-64.35.26-78.9.15-.78.5-1.5,1.01-2.11.08-.09,8-9.51,15.09-21.91,9.03-15.79,12.69-29.24,10.59-38.89-1.48-6.81-5.82-11.81-13.25-15.31-.16-.07-.33-.15-.49-.22-13.03-6.04-33.15-11.21-46.88-9.55-8,.97-13.75,3.18-17.58,6.75-3.72,3.46-6.02,9.75-3.43,14.27,2.84,4.96,9.46,5.98,17.12,7.17,3.86.6,7.85,1.22,11.6,2.43,1.78.57,3.04,2.15,3.2,4.01.17,1.86-.79,3.64-2.44,4.52-6.39,3.42-10.78,10.31-11.19,17.54-.4,7.16,3.11,14.41,8.95,18.55.06.05.12.1.19.14,2.11,1.46,2.65,4.36,1.18,6.47-.9,1.31-2.36,2.01-3.83,2.01-.91,0-1.83-.27-2.64-.83-8.57-5.92-13.74-16.47-13.15-26.88.39-6.85,3.26-13.48,7.79-18.61-.37-.06-.73-.11-1.1-.17-8.77-1.36-18.7-2.9-23.77-11.74-4.46-7.77-2.24-18.83,5.16-25.71,5.32-4.96,12.78-7.96,22.8-9.17,14.87-1.8,34.59,3.04,48.42,8.81,3.72-7.94,4.1-16.48.89-23.48-2.81-6.15-7.99-10.25-14.2-11.26-8.69-1.42-20.29,6.18-22.16,14.51-.51,2.27-2.62,3.82-4.93,3.62-2.32-.19-4.14-2.07-4.26-4.39-.37-7.1-9.16-14.91-16.78-14.92h-.05c-7.97,0-14,2.76-17.93,8.19-5.09,7.05-5.62,17.13-3.51,23.45.67,2.01-.1,4.22-1.88,5.37-1.78,1.16-4.11.97-5.67-.46-5.53-5.04-11.47-7.47-17.19-7.04-4.81.37-9.17,2.81-12.6,7.05-7.15,8.85-1.02,24.75,6.09,43.15,3.77,9.78,7.67,19.89,10.24,30.46,5.69,23.48,4.18,55.87-4.03,86.63-6.55,24.52-20.2,59.13-48.25,87.35,14.45,11.86,35.52,15.24,52.86,8.09,1.59-.66,3.41-.38,4.74.72,1.33,1.1,1.94,2.83,1.59,4.52-3.62,17.66-10.22,34.52-19.44,49.86l146.99,84.86,36.76,21.23c4.57-25.33,9.57-44.55,21.76-50.9,5.87-3.06,12.8-2.73,20.6.97,30.76,14.58,63.3,17.85,85.17,18.02,11.9.08,23.66-.7,34.69-2.27l53.51-30.89c-.76-4.17-1.18-8.44-1.3-12.78-9.51,4.27-20.03,6.71-30.91,7.03Z"/>
        <path class="cls-1" d="M561.11,195.46c-2.86-.99-5.93-1.47-9.11-1.47-10.63,0-22.58,5.35-32.49,14.95-4.21,4.08-8.23,9.29-11.08,15.11.21.66.41,1.31.6,1.97,0,.02.01.04.02.06.25.86.49,1.72.72,2.58,10.13-11.32,23.45-18.81,37.46-20.36,11.98-1.33,23.38,1.83,32.88,8.86-4-11.33-10.43-18.72-19-21.69Z"/>
        <path class="cls-1" d="M451.21,184.75c-6.74,0-13.7,1.67-20.75,5.05-14.45,6.92-27.73,20.43-36.44,37.06-1.76,3.36-3.29,6.75-4.58,10.15,3.75-5.57,8.28-10.52,13.57-14.79,13.87-11.2,32.19-17.18,51.59-16.79,15.37.3,29.75,4.62,40.49,12.16.46.32.9.65,1.34.98-1.97-4.46-4.42-8.78-7.48-12.72-10.85-13.95-23.83-21.09-37.76-21.09Z"/>
      </g>
      <g>
        <path class="cls-4" d="M271.43,632.81c-.57.23-1.17.35-1.77.35s-1.21-.12-1.77-.35c-.19-.08-.37-.17-.55-.27l-110.69-63.91v107.01l255.69,147.62v-271.75l-140.34,81.03c-.18.1-.37.2-.55.27Z"/>
        <path class="cls-4" d="M566.62,632.54c-.18.1-.37.2-.55.27-.57.23-1.17.35-1.77.35s-1.21-.12-1.77-.35c-.19-.08-.37-.17-.55-.27l-140.34-81.03v271.75l255.69-147.62v-107.01l-110.69,63.91Z"/>
      </g>
      <g>
        <path class="cls-5" d="M294.66,226.35c4.25-15.08,10.57-29.7,18.69-43.35l-14.09-8.14c-2.47,3.43-4.48,5.98-5.54,7.28-1.75,9.67-2.95,25.71-2.31,45,1.09-.27,2.17-.53,3.25-.79Z"/>
        <path class="cls-5" d="M188.59,363.94c.56-1.83,1.09-3.67,1.58-5.53-20.41,5-43.38-1.02-58.31-15.95-.89-.89-1.38-2.1-1.36-3.36s.54-2.45,1.46-3.32c38.58-36.46,54.33-89.87,56.14-130.93L13.96,305.4l138.01,79.68,36.62-21.14Z"/>
        <path class="cls-5" d="M616.24,200.77c1.54.25,2.85,1.26,3.49,2.68,6.77,15.02,17.62,57.43,8,92.64-.63,2.3-2.89,3.75-5.24,3.37-.35-.06-.71-.11-1.07-.16-2.07,9.86-4.72,19.7-7.65,29.49,4.29,6.9,7.13,14.22,8.37,21.75l59.83,34.54,138.01-79.68-221.73-128.02c4.57,7.26,8.72,14.82,12.35,22.51,1.89.28,3.77.57,5.64.88Z"/>
        <path class="cls-5" d="M440.57,410.39c15.98,10.4,35.99,8.26,46.48,6.05,24.13-5.07,41.56-18.7,51.43-34.17-10.7-3.7-23.89-.41-36.76,2.8-14.1,3.52-27.42,6.85-36.95.45-5.53-3.71-8.87-10.06-10.22-19.42,0,0,0,0,0,0,0,0,0-.06,0-.06-1.41-9.92-.72-19.64,1.94-28.72-1.48.12-2.97.21-4.47.23-.77.01-1.54.02-2.3.02-8.37,0-15.78-.73-22.36-2.04-6.12,8.71-8.96,20.1-8.46,34.02.61,16.9,8.91,32.56,21.66,40.86Z"/>
        <path class="cls-5" d="M463.77,364.76c.95,6.6,2.98,10.86,6.19,13.02,6.1,4.09,17.47,1.25,29.51-1.75,8.81-2.2,18.7-4.67,28.31-4.67s18.97,2.48,26.66,10.2c6.4,6.42,10.03,15.81,9.95,25.77-.05,7.08-1.89,13.87-5.3,19.84,15.26-2.63,29.05-10.03,38.86-21.06,11.84-13.31,17.18-30.86,15.43-50.75-1.4-15.95-11.54-31.25-28.56-43.09-15.51-10.8-34.74-17.23-51.48-17.23-.06,0-.12,0-.18,0-22.67.06-43.17,8.76-56.24,23.87-11.05,12.77-15.6,28.59-13.16,45.77v.09Z"/>
        <polygon class="cls-5" points="13.96 475.51 269.65 623.13 407.67 543.45 151.98 395.83 13.96 475.51"/>
        <polygon class="cls-5" points="426.28 543.45 564.3 623.13 819.99 475.51 681.97 395.83 426.28 543.45"/>
      </g>
      <g>
        <path d="M549.48,253.3h-.04c-2.07,0-3.91.73-5.21,2.04.5-5,4.21-9.63,9.05-11.07.93-.27,1.53-1.16,1.45-2.12s-.82-1.74-1.78-1.86c-9.63-1.22-18.93,2.25-23.68,8.84-2.86,3.97-3.85,9.54-2.57,14.53,1.11,4.36,3.74,7.73,7.39,9.47,2.11,1.01,4.58,1.52,7.35,1.52.62,0,1.26-.03,1.92-.08,3.38-.27,8.12-1.34,11.45-4.9,3.38-3.62,4.06-9.15,1.56-12.85-1.45-2.16-4.09-3.51-6.89-3.52Z"/>
        <path d="M431,293.51c3.27,1.56,7.08,2.35,11.36,2.35.97,0,1.96-.04,2.97-.12,5.24-.41,12.56-2.06,17.7-7.57,5.22-5.59,6.26-14.11,2.42-19.82-2.24-3.32-6.3-5.4-10.61-5.42-3.36-.02-6.26,1.19-8.29,3.35.66-7.92,6.5-15.3,14.15-17.58,1.39-.41,2.3-1.74,2.18-3.18-.12-1.44-1.23-2.61-2.67-2.79-14.92-1.9-29.31,3.47-36.66,13.68-4.42,6.14-5.94,14.75-3.97,22.47,1.72,6.74,5.78,11.94,11.42,14.64Z"/>
        <path d="M831.62,471.48l-140.34-81.03,140.34-81.03c1.44-.83,2.33-2.37,2.33-4.03s-.89-3.2-2.33-4.03l-246.19-142.14c-14.7-18.54-31.7-33.16-49.54-42.67,2.19-5.41,4.5-10.75,7-15.89,16.5-33.83,39.86-64.8,65.79-87.2,1.64-1.41,2.08-3.77,1.08-5.68-1-1.92-3.19-2.89-5.29-2.35-27.94,7.21-51.79,20.99-73.88,42.89,5.72-15.28,14.46-28.59,26.46-40.35,1.54-1.51,1.84-3.89.72-5.73-1.12-1.85-3.36-2.68-5.42-2.02-31.41,10.19-52.69,23.87-73.13,47.99,3.27-8.99,8.67-19.07,15.68-28.92,1.17-1.65,1.15-3.86-.06-5.48-1.21-1.62-3.32-2.27-5.23-1.62-48.15,16.45-75.28,45.85-87.7,95.12-34.69,13.2-63.62,37.77-83.6,67.81l-13.8-7.97c1.45-2.24,2.93-4.65,4.39-7.2,10.4-18.14,14.33-33.48,11.69-45.62-1.79-8.22-6.51-14.74-14.06-19.43,4.95-10.45,5.37-21.92,1-31.47-4.13-9.01-11.85-15.05-21.17-16.57-9.78-1.59-20.92,3.53-27.49,11.42-4.89-7.26-13.59-12.71-22.12-12.72h-.06c-13.86,0-21.5,6.55-25.47,12.05-4.49,6.22-6.32,13.78-6.4,20.6-4.9-2.41-10.03-3.5-15.01-3.12-7.33.56-14.13,4.28-19.14,10.49-10.53,13.03-3.16,32.13,4.64,52.35,3.67,9.5,7.46,19.32,9.87,29.31,1.82,7.53,2.9,16.63,3.07,26.77L2.33,301.37c-1.44.83-2.33,2.37-2.33,4.03s.89,3.2,2.33,4.03l140.34,81.03L2.33,471.48c-1.44.83-2.33,2.37-2.33,4.03s.89,3.2,2.33,4.03l145,83.71v115.08c0,1.66.89,3.2,2.33,4.03l265,153c.72.42,1.52.62,2.33.62s1.61-.21,2.33-.62l265-153c1.44-.83,2.33-2.37,2.33-4.03v-115.08l145-83.71c1.44-.83,2.33-2.37,2.33-4.03s-.89-3.2-2.33-4.03ZM819.99,305.4l-138.01,79.68-59.83-34.54c-1.24-7.53-4.07-14.85-8.37-21.75,2.92-9.79,5.58-19.63,7.65-29.49.35.06.72.11,1.07.16,2.35.38,4.61-1.07,5.24-3.37,9.62-35.21-1.23-77.62-8-92.64-.64-1.42-1.95-2.43-3.49-2.68-1.87-.31-3.75-.6-5.64-.88-3.63-7.69-7.78-15.25-12.35-22.51l221.73,128.02ZM554.44,381.56c-7.69-7.72-17.03-10.2-26.66-10.2s-19.49,2.47-28.31,4.67c-12.04,3.01-23.41,5.85-29.51,1.75-3.21-2.16-5.24-6.42-6.19-13.02v-.09c-2.45-17.18,2.1-33,13.15-45.77,13.07-15.1,33.57-23.8,56.24-23.87.06,0,.12,0,.18,0,16.73,0,35.96,6.44,51.48,17.23,17.01,11.84,27.16,27.15,28.56,43.09,1.75,19.89-3.59,37.44-15.43,50.75-9.81,11.03-23.6,18.42-38.86,21.06,3.4-5.97,5.24-12.75,5.3-19.84.08-9.96-3.55-19.35-9.95-25.77ZM454.43,214.72c28.32.55,44.98,14.24,48.98,29.33.12.77.22,1.53.33,2.28.03.23.06.45.09.67.08.59.15,1.18.22,1.76.03.23.06.46.08.68.09.75.17,1.48.25,2.19,1.68,15.6,1,28.63-2.06,39.36-12.77,4.57-23.95,12-32.44,21.81-3.92,4.52-7.14,9.46-9.64,14.69-2.74.43-5.53.69-8.37.73-40.15.61-63.61-16.76-66-48.97,1.99-45.45,35.81-65.18,68.55-64.53ZM389.44,237c1.29-3.4,2.82-6.79,4.58-10.15,8.71-16.63,21.99-30.14,36.44-37.06,7.05-3.38,14.01-5.05,20.75-5.05,13.93,0,26.9,7.14,37.76,21.09,3.06,3.94,5.51,8.26,7.48,12.72-.44-.33-.89-.66-1.34-.98-10.75-7.55-25.13-11.86-40.49-12.16-19.41-.38-37.73,5.59-51.59,16.79-5.29,4.27-9.82,9.23-13.57,14.79ZM427.37,335.52c6.58,1.3,13.99,2.04,22.36,2.04.75,0,1.53,0,2.3-.02,1.5-.02,2.99-.11,4.47-.23-2.65,9.08-3.34,18.8-1.94,28.72,0,0,0,.06,0,.06,0,0,0,0,0,0,1.35,9.36,4.69,15.71,10.22,19.42,9.53,6.4,22.85,3.07,36.95-.45,12.86-3.21,26.06-6.5,36.76-2.8-9.88,15.47-27.3,29.11-51.43,34.17-10.5,2.21-30.5,4.35-46.48-6.05-12.75-8.3-21.05-23.95-21.66-40.86-.5-13.92,2.34-25.31,8.46-34.02ZM561.35,290.43c-9.44-3.04-19.03-4.7-28.01-4.7h-.2c-7.06.02-13.93.8-20.5,2.28,2.19-10.66,2.53-23,1.02-37.18-.03-3.19-.44-6.3-1.21-9.3-.05-.3-.1-.61-.15-.91,4.95-5.76,10.51-11.33,16.41-16.04,6.07-3.82,12.72-6.29,19.55-7.04,14.04-1.56,26.64,4.33,35.63,16.56,3.32,30.12-3.86,48.17-22.53,56.32ZM612.16,298c-1.51,7.14-3.34,14.28-5.35,21.41-4.64-5.32-10.22-10.29-16.67-14.78-5.14-3.58-10.66-6.71-16.38-9.35,13.82.37,26.73,1.28,38.4,2.72ZM547.23,208.29c-14.01,1.55-27.34,9.04-37.46,20.36-.23-.86-.46-1.71-.72-2.58,0-.02-.01-.04-.02-.06-.19-.65-.4-1.31-.6-1.97,2.85-5.82,6.87-11.02,11.08-15.11,9.91-9.61,21.85-14.95,32.49-14.95,3.18,0,6.25.48,9.11,1.47,8.57,2.97,15,10.36,19,21.69-9.5-7.03-20.9-10.19-32.88-8.86ZM479.46,26.09c-8.7,15.04-13.47,29.54-13.06,40.39.08,1.99,1.4,3.71,3.31,4.28,1.9.57,3.96-.12,5.12-1.74,16.63-23.1,33.74-40.66,63.18-53.46-10.8,14.35-17.97,30.62-21.78,49.31-.42,2.08.61,4.19,2.52,5.12,1.91.93,4.21.45,5.58-1.17,19.32-22.74,39.66-38.28,62.89-47.85-20.65,21.27-38.99,47.51-52.71,75.64-6.64,13.69-11.94,28.39-17.06,42.61-.59,1.64-1.19,3.3-1.79,4.97-18.9-26.15-51.05-41.74-83.58-41.74-6.61,0-13.24.64-19.77,1.97,10.86-38.24,32-62.98,67.16-78.32ZM407.26,115.23c39.66-11.54,84.9,6.16,105.27,41.2l.25.43c.83,1.46,2.38,2.34,4.04,2.34.13,0,.25,0,.38-.02,1.8-.15,3.35-1.32,3.98-3.01,1.7-4.57,3.39-9.26,5.03-13.8,2.03-5.65,4.1-11.38,6.26-17.07,29.1,15.83,52.3,44.47,66.96,73.1-6.84-.82-13.75-1.49-20.68-2.01-4.74-5.18-9.94-8.11-14.6-9.72-12.77-4.42-28.44-1.18-42.11,8.21-10.05.16-19.84.52-29.23,1.02-.38-.43-.77-.84-1.16-1.26-.03-.03-.05-.06-.08-.09-11.55-12.53-24.77-19.01-38.64-19.07-8.63-.3-17.55,1.65-26.49,5.94-10.96,5.25-21.28,13.81-29.79,24.48-29.22,4.46-58.8,10.29-91.64,18.01,15.15-48.1,52.66-90.57,102.25-108.65ZM313.35,183c-8.12,13.65-14.44,28.27-18.69,43.35-1.08.26-2.16.52-3.25.79-.64-19.29.55-35.32,2.31-45,1.06-1.3,3.07-3.84,5.54-7.28l14.09,8.14ZM194.23,165.06c-2.56-10.57-6.46-20.69-10.24-30.46-7.1-18.41-13.24-34.3-6.09-43.15,3.43-4.25,7.79-6.69,12.6-7.05,5.72-.43,11.66,2,17.19,7.04,1.57,1.43,3.9,1.62,5.67.46,1.78-1.16,2.55-3.36,1.88-5.37-2.11-6.32-1.58-16.4,3.51-23.45,3.92-5.44,9.95-8.19,17.93-8.19h.05c7.63,0,16.41,7.82,16.78,14.92.12,2.32,1.94,4.2,4.26,4.39,2.31.2,4.42-1.35,4.93-3.62,1.86-8.33,13.46-15.93,22.16-14.51,6.21,1.01,11.39,5.11,14.2,11.26,3.2,6.99,2.83,15.54-.89,23.48-13.83-5.77-33.55-10.62-48.42-8.81-10.02,1.22-17.48,4.22-22.8,9.17-7.4,6.89-9.61,17.94-5.16,25.71,5.07,8.84,15,10.38,23.77,11.74.37.06.74.11,1.1.17-4.53,5.13-7.4,11.76-7.79,18.61-.59,10.4,4.57,20.95,13.15,26.88.81.56,1.73.83,2.64.83,1.48,0,2.93-.7,3.83-2.01,1.46-2.12.93-5.01-1.18-6.47-.06-.04-.13-.1-.19-.14-5.85-4.14-9.36-11.39-8.95-18.55.41-7.24,4.8-14.12,11.19-17.54,1.65-.88,2.61-2.66,2.44-4.52-.17-1.86-1.43-3.44-3.2-4.01-3.75-1.21-7.74-1.83-11.6-2.43-7.66-1.19-14.28-2.22-17.12-7.17-2.59-4.52-.29-10.81,3.43-14.27,3.83-3.57,9.58-5.77,17.58-6.75,13.74-1.66,33.85,3.51,46.88,9.55.16.07.33.15.49.22,7.43,3.5,11.76,8.51,13.25,15.31,2.1,9.64-1.56,23.09-10.59,38.89-7.09,12.4-15.01,21.81-15.09,21.91-.51.6-.86,1.33-1.01,2.11-2.85,14.55-4.52,44.68-.26,78.9-24.65-16.41-59.47-23.78-77.25-21.4-1.42.19-2.67,1.02-3.39,2.25-.73,1.23-.84,2.73-.32,4.06,7.39,18.88,24.8,30.8,39.15,39.08,6.56,3.79,13.47,7.68,20.55,11.26-15.87,7.17-28.93,21.16-34.08,37.65-.4,1.29-.23,2.69.48,3.84s1.88,1.93,3.22,2.15c5.35.86,11.77,1.67,18.6,1.67,9.25,0,19.25-1.48,28.32-6.3,5.65-3,11.39-8.69,15.37-15.23.54-.89,1.15-1.97,1.74-3.16,16.87,49.99,43.69,72.29,64.62,82.21.13.06.27.09.4.14,2.23.82,4.76-.16,5.8-2.35,1.1-2.32.11-5.1-2.21-6.2-19.88-9.43-34.36-25.47-44.92-43.59,1.02-1.23,2.23-2.36,3.34-3.29,10.83-9.05,34.5-18.16,66.11-25.91,6.14,7.36,14.99,13.96,27.75,18.09-5.99,9.89-8.76,22.19-8.23,36.8.72,19.88,10.64,38.4,25.89,48.32,9.54,6.21,21.46,9.39,34.63,9.39,6.05,0,12.37-.67,18.84-2.03,21.83-4.58,44.75-18.5,57.7-38.52.4.35.79.72,1.18,1.11,4.66,4.67,7.29,11.64,7.24,19.13-.06,8.47-3.43,16.38-9.48,22.26-1.38,1.34-1.79,3.38-1.04,5.15.73,1.72,2.42,2.84,4.29,2.84.05,0,.09,0,.14,0,10.88-.32,21.4-2.76,30.91-7.03.11,4.35.54,8.61,1.3,12.78l-53.51,30.89c-11.03,1.56-22.79,2.35-34.69,2.27-21.88-.17-54.41-3.44-85.17-18.02-7.8-3.7-14.74-4.03-20.6-.97-12.19,6.35-17.2,25.57-21.76,50.9l-36.76-21.23-146.99-84.86c9.22-15.34,15.82-32.21,19.44-49.86.35-1.69-.27-3.42-1.59-4.52-1.33-1.1-3.15-1.37-4.74-.72-17.34,7.15-38.41,3.77-52.86-8.09,28.05-28.22,41.7-62.83,48.25-87.35,8.22-30.76,9.72-63.15,4.03-86.63ZM13.96,305.4l174.13-100.54c-1.81,41.06-17.56,94.47-56.14,130.93-.91.86-1.44,2.06-1.46,3.32s.47,2.47,1.36,3.36c14.93,14.93,37.9,20.95,58.31,15.95-.49,1.86-1.02,3.7-1.58,5.53l-36.62,21.14L13.96,305.4ZM13.96,475.51l138.01-79.68,255.69,147.62-138.01,79.68L13.96,475.51ZM412.32,823.27l-255.69-147.62v-107.01l110.69,63.91c.18.1.37.2.55.27.57.23,1.17.35,1.77.35s1.21-.12,1.77-.35c.19-.08.37-.17.55-.27l140.34-81.03v271.75ZM416.98,538.08l-42.95-24.8c4.06-23.02,8.57-42.95,17.49-47.59,3.19-1.66,7.22-1.29,12.32,1.12,32.21,15.27,70.47,20.34,104.4,18.58l-91.25,52.68ZM677.32,675.64l-255.69,147.62v-271.75l140.34,81.03c.18.1.37.2.55.27.57.23,1.17.35,1.77.35s1.21-.12,1.77-.35c.19-.08.37-.17.55-.27l110.69-63.91v107.01ZM564.3,623.13l-138.01-79.68,255.69-147.62,138.01,79.68-255.69,147.62Z"/>
      </g>
    </g>
  </g>
</svg>